<?xml version="1.0" encoding="UTF-8"?>
<svg id="Layer_1" xmlns="http://www.w3.org/2000/svg" version="1.1" viewBox="0 0 133.13 130.03">
  <!-- Generator: Adobe Illustrator 29.7.1, SVG Export Plug-In . SVG Version: 2.1.1 Build 8)  -->
  <defs>
    <style>
      .st0 {
        fill: #e4572e;
      }
    </style>
  </defs>
  <path class="st0" d="M16.74,75.96c-1.77-6.66-2.45-14.63,2.33-19.59,5.73-5.95,16.42-3.67,21.95,2.48s7.27,14.71,8.8,22.83c-6.45-19.07-8.84-39.5-6.97-59.54.42-4.55,1.11-9.21,3.41-13.15,2.3-3.94,6.57-7.05,11.12-6.72,7.94.57,11.62,10.07,12.74,17.96,2.03,14.36,1.7,29.05-.99,43.3,8.18-7.23,17.96-13.72,28.88-13.92s22.49,8.33,21.98,19.24c-.33,6.99-5.41,13.06-11.51,16.5-6.1,3.44-13.14,4.73-20.03,5.96,9.35,2.57,19.33,9.16,19.4,18.86.08,11.43-13.74,18.04-25.14,17.19-34.61-2.6-56.65-16.32-65.96-51.4Z"/>
  <circle class="st0" cx="98" cy="19.38" r="14.51"/>
</svg>