<?xml version="1.0" encoding="UTF-8"?>
<svg id="Layer_1" xmlns="http://www.w3.org/2000/svg" version="1.1" viewBox="0 0 133.13 130.03">
  <!-- Generator: Adobe Illustrator 29.7.1, SVG Export Plug-In . SVG Version: 2.1.1 Build 8)  -->
  <defs>
    <style>
      .st0 {
        fill: #e4592d;
      }
    </style>
  </defs>
  <path class="st0" d="M18.26,115.06C-.17,86.67,2.22,49.87,36.22,35.25c8.11-3.48,16.61-5.1,24.99-5.8,11.09-.97,22.49-.07,32.52-1.24,5.88-.65,11.87-2.65,16.69-6.23,2.01-1.5,3.84-3.35,5.48-5.99l.57-.91c1.54-2.47,4.79-3.22,7.26-1.68,4.23,2.75,3.7,12.15,2.54,16.69-3.28,12.82-13.74,22.58-25.66,27.56-12.32,5.16-24.42,5.89-36.37,6.96-7.65.63-16.72,2.1-22.38,5.56-12.97,8.36-11.86,28.44-13.85,42.77-.58,4.91-7.22,6.34-9.77,2.14h0Z"/>
</svg>