<?xml version="1.0" encoding="UTF-8"?>
<svg id="Layer_1" xmlns="http://www.w3.org/2000/svg" version="1.1" viewBox="0 0 133.13 130.03">
  <!-- Generator: Adobe Illustrator 29.7.1, SVG Export Plug-In . SVG Version: 2.1.1 Build 8)  -->
  <defs>
    <style>
      .st0 {
        fill: #e4592d;
      }
    </style>
  </defs>
  <path class="st0" d="M25.58,112.52c-5.59-1.71-10.76-9.24-13.66-14.94-7.53-14.44-8.2-32.25-1.27-47.09,8.97-19.92,29.94-31.59,50.75-34.03,7.92-.98,16.19-.93,23.83.28,6.26.91,12.45,2.67,18.79,2.71,7.12.26,15.69-3.67,20.78-1.22,4.81,2.31,6.01,8.42,6.03,13.4-.11,11.07-5.56,21.24-12.62,29.43-15.14,17.94-38.27,15.58-58.26,23.13-6.32,2.5-12.12,6.47-16.26,11.91-5.41,6.31-8.34,18.79-17.96,16.47l-.15-.04Z"/>
</svg>