<?xml version="1.0" encoding="UTF-8"?>
<svg id="Layer_1" xmlns="http://www.w3.org/2000/svg" version="1.1" viewBox="0 0 133.13 130.03">
  <!-- Generator: Adobe Illustrator 29.7.1, SVG Export Plug-In . SVG Version: 2.1.1 Build 8)  -->
  <defs>
    <style>
      .st0 {
        fill: #fefbdd;
      }

      .st0, .st1 {
        stroke: #e4572e;
        stroke-linecap: round;
        stroke-miterlimit: 10;
        stroke-width: 10px;
      }

      .st2 {
        fill: #e4572e;
      }

      .st1 {
        fill: none;
      }
    </style>
  </defs>
  <path class="st0" d="M15.98,84.61c-1.11,8.72-2.73,17.61-1.1,26.23.82,4.33,2.87,8.91,6.82,10.44,2.41.93,5.09.55,7.64.18,23.95-3.44,48.24-4.26,72.35-2.42,3.67.28,7.61.56,10.76-1.42,3.3-2.07,4.94-6.14,5.69-10.08,1.29-6.74.6-13.7-.1-20.53-1.14-11.15-2.28-22.3-3.42-33.45-.26-2.56-.62-5.34-2.4-7.12-1.93-1.94-4.89-2.06-7.57-2.07-21.4-.09-42.8-.18-64.2-.27-4.09-.02-8.23-.03-12.21,1-3.27.84-6.31,2.44-8.71,4.94s-1.79,5.31-1.83,8.85c-.08,8.6-.66,17.2-1.74,25.72h.02Z"/>
  <path class="st1" d="M35.49,62.66c-2.21-8.19-3.79-16.75-2.62-25.15,1.96-14.02,12.41-26.75,26.07-30.5,13.66-3.75,29.66,2.32,36.62,14.66,5.25,9.31,5.22,20.57,5.05,31.26"/>
  <ellipse class="st2" cx="38.13" cy="68.29" rx="10.27" ry="11.18"/>
  <ellipse class="st2" cx="98.02" cy="62.66" rx="10.27" ry="11.18"/>
</svg>