<?xml version="1.0" encoding="UTF-8"?>
<svg id="Layer_1" xmlns="http://www.w3.org/2000/svg" version="1.1" viewBox="0 0 133.13 130.03">
  <!-- Generator: Adobe Illustrator 29.7.1, SVG Export Plug-In . SVG Version: 2.1.1 Build 8)  -->
  <defs>
    <style>
      .st0 {
        fill: #fffddc;
      }

      .st1 {
        fill: #e4572e;
      }
    </style>
  </defs>
  <path class="st1" d="M43.7,91.48c0,7.04-5.7,12.74-12.74,12.74s-12.74-5.7-12.74-12.74c0-.75.07-1.49.19-2.2,1.04-5.99,6.27-10.54,12.55-10.54s11.59,4.62,12.57,10.68c.11.67.17,1.36.17,2.06Z"/>
  <path class="st1" d="M43.7,91.48c0,7.04-5.7,12.74-12.74,12.74s-12.74-5.7-12.74-12.74c0-.75.07-1.49.19-2.2,1.04-5.99,6.27-10.54,12.55-10.54s11.59,4.62,12.57,10.68c.11.67.17,1.36.17,2.06Z"/>
  <path class="st1" d="M113.93,91.48c0,7.04-5.71,12.74-12.74,12.74s-12.75-5.7-12.75-12.74c0-.72.06-1.42.18-2.1,1-6.04,6.25-10.64,12.57-10.64s11.45,4.5,12.53,10.44c.14.75.21,1.51.21,2.3Z"/>
  <path class="st1" d="M113.93,91.48c0,7.04-5.71,12.74-12.74,12.74s-12.75-5.7-12.75-12.74c0-.72.06-1.42.18-2.1,1-6.04,6.25-10.64,12.57-10.64s11.45,4.5,12.53,10.44c.14.75.21,1.51.21,2.3Z"/>
  <path class="st0" d="M66.21,25.29c-4.65-.09-9.39.59-13.56,2.64-6.15,3.02-10.54,8.72-13.91,14.69-1.32,2.34-2.54,4.8-2.97,7.45s0,5.56,1.71,7.64c2.56,3.12,7.07,3.61,11.1,3.86,18.18,1.13,36.68,2.23,54.41-1.95,1.13-.27,2.32-.59,3.15-1.4,1.72-1.69,1.16-4.55.3-6.81-2.76-7.31-7.24-13.97-12.97-19.27-1.94-1.79-4.04-3.45-6.46-4.52-3.2-1.41-6.01-.6-9.25-.99-3.87-.47-7.64-1.26-11.56-1.33Z"/>
  <path class="st1" d="M30.96,78.74c-6.28,0-11.51,4.55-12.55,10.54,8.38.07,16.75.11,25.12.14-.98-6.06-6.23-10.68-12.57-10.68ZM127.66,81.63c-.57-5.56-4.91-9.61-8.41-13.55-4.27-4.81-5.9-9.29-7.75-15.33-2.65-8.68-7.87-16.6-15-22.24-12.93-10.21-30.95-12.55-45.53-4.43-8.66,4.82-15.4,12.98-18.5,22.39-1.34,4.07-2.41,8.87-6.2,10.88-3.09,1.64-6.92.76-10.29,1.69-7.01,1.94-9.84,10.79-10.53,17.55-.13,1.24-.11,2.49.14,3.71.61,2.96,2.18,4.66,4.17,5.64,1.71.84,3.73-.1,4.32-1.91,2.31-7.12,9.01-12.29,16.89-12.29,7.29,0,13.57,4.42,16.29,10.71,1.3,3,4.18,4.99,7.45,4.99,7.59,0,15.19,0,22.78-.03,3.25-.01,6.13-1.99,7.42-4.97,2.73-6.29,9-10.71,16.29-10.71,6.51,0,13.78,8.68,17.11,13,1.47,1.91,4.08,2.71,6.26,1.69.17-.08.33-.17.49-.26,2.1-1.3,2.86-4.07,2.61-6.54h-.01ZM66.63,54.67c-.1,1.15-.25,2.39-1.03,3.24-.99,1.1-2.66,1.2-4.14,1.22l-15.93.24c-1.94.03-4.01.02-5.64-1.02-2.53-1.61-3.09-5.11-2.65-8.08.74-4.99,3.56-9.5,7.12-13.09,4.61-4.66,14.6-15.1,20.23-6.72,1.92,2.86,2.25,6.47,2.37,9.91.17,4.76.06,9.54-.33,14.3ZM105.27,57.69c-.91.98-2.39,1.09-3.73,1.14-5.64.19-11.27.39-16.91.59-3.4.12-9.18.21-10.98-3.39-.53-1.12-.56-2.41-.58-3.65-.07-5.34-.14-10.67-.22-16-.03-2.14-.02-4.42,1.12-6.24,4.11-6.5,18.22,3.29,21.78,6.56l.19.19c3.03,2.83,5.52,6.23,7.34,9.95,1.14,2.33,4.07,8.6,1.99,10.85ZM101.19,78.74c-6.32,0-11.57,4.6-12.57,10.64,8.36-.05,16.73-.11,25.1-.2-1.08-5.94-6.28-10.44-12.53-10.44Z"/>
</svg>