<?xml version="1.0" encoding="UTF-8"?>
<svg id="Layer_1" xmlns="http://www.w3.org/2000/svg" version="1.1" viewBox="0 0 133.13 130.03">
  <!-- Generator: Adobe Illustrator 29.7.1, SVG Export Plug-In . SVG Version: 2.1.1 Build 8)  -->
  <defs>
    <style>
      .st0 {
        fill: #fefbdd;
      }

      .st1 {
        fill: #e4572e;
      }

      .st2 {
        fill: none;
        stroke: #e4572e;
        stroke-linecap: round;
        stroke-miterlimit: 10;
        stroke-width: 10px;
      }
    </style>
  </defs>
  <path class="st1" d="M111.49,71.79c0,24.99-24.63,45.25-55,45.25S1.48,96.79,1.48,71.79s22.63-20.25,53-20.25,57-4.74,57,20.25Z"/>
  <path class="st2" d="M101.78,62.44c3.85-3.55,11.88-4.2,17.55-1.09,5.88,3.22,8.81,10.16,8.82,16.86.05,19.18-23.29,20.58-29.82,19.07"/>
  <path class="st0" d="M100.34,59.25c0,3.18-19.63,8.97-43.85,8.97s-43.85-5.79-43.85-8.97,19.63-2.53,43.85-2.53,43.85-.65,43.85,2.53Z"/>
  <path class="st2" d="M40.15,61.57c-3.1-2.17-5.99-4.75-7.95-7.98s-2.92-7.19-2.04-10.87c.88-3.69,3.46-6.72,6-9.53s5.22-5.71,6.38-9.32.32-8.19-2.96-10.12"/>
  <path class="st2" d="M70.93,41.38c-.63-3.69-2.41-7.1-3.17-10.77-1.39-6.7.95-14.04,5.96-18.7"/>
</svg>