<?xml version="1.0" encoding="UTF-8"?>
<svg id="Layer_1" xmlns="http://www.w3.org/2000/svg" version="1.1" viewBox="0 0 83.81 106.95">
  <!-- Generator: Adobe Illustrator 29.7.1, SVG Export Plug-In . SVG Version: 2.1.1 Build 8)  -->
  <defs>
    <style>
      .st0 {
        fill: #e45a2b;
      }
    </style>
  </defs>
  <path class="st0" d="M1.72,75.17c1.95-1.83,6.37-1.02,8.84-.63,4.91.78,9.37,3.33,12.53,7.16.59-3.26,1.27-6.5,2.04-9.71-1.69,0-3.57-.43-5.59-1.42-.58-.29-1.18-.62-1.79-1-3.97-2.49-6.59-6.79-7.66-11.35-.91-3.82-2.46-11.5,1.7-14.04,2.23-1.36,6.5-.23,8.88.35,3.68.84,7.03,2.71,9.68,5.39.68.72,1.27,1.49,1.79,2.27,1.04-2.08,2.16-4.12,3.34-6.12-1.13-.34-2.2-.84-3.19-1.47-3.7-2.23-6.6-6.42-8.28-11-1.39-3.84-4-11.57-1-14.51,1.61-1.58,5.32-.77,7.4-.37,3.37.66,6.48,2.31,8.91,4.74,2.58,2.61,4.36,5.9,5.14,9.48.86-1.13,1.74-2.26,2.63-3.37l2.54-3.15c-.81-.13-1.69-.4-2.65-.86-.47-.23-.98-.5-1.49-.81-3.35-2.05-6.06-5.94-7.69-10.2-1.37-3.56-3.93-10.75-1.35-13.49,1.37-1.47,4.7-.73,6.55-.37,2.82.56,5.66,1.98,8.06,4.36,1.11,1.11,2.06,2.36,2.84,3.72.71-1.99,1.88-3.79,3.41-5.24,1.79-1.69,4.05-2.81,6.48-3.22,1.49-.24,4.17-.75,5.29.41,2.1,2.16.08,7.65-.99,10.38-.29.72-.62,1.43-.99,2.11,1.29-.21,2.6-.27,3.9-.19,3.4.25,6.37,1.47,8.67,3.25,1.51,1.17,4.29,3.23,4.12,5.27-.32,3.81-7.4,6.66-10.97,8-4.27,1.59-8.98,2.13-12.77.93-.58-.19-1.12-.39-1.6-.6-.9-.39-1.64-.85-2.25-1.33-1.05,1.57-2.27,3.01-3.49,4.45l-1.26,1.5c2-.49,4.06-.65,6.11-.46,3.65.35,6.85,1.78,9.34,3.82,1.63,1.34,4.63,3.67,4.45,5.92-.33,4.2-7.93,7.14-11.78,8.53-4.58,1.64-9.66,2.12-13.74.69-.63-.22-1.2-.45-1.74-.7-1.55-.66-2.9-1.73-3.89-3.09-.83,1.26-1.65,2.53-2.42,3.83-1.03,1.74-1.97,3.54-2.82,5.38,4.93-2.96,10.74-4.12,16.43-3.28,4.17.67,8.05,2.55,11.16,5.41,1.88,1.75,5.34,4.84,4.88,7.55-.85,5.06-10.56,8.02-15.44,9.36-5.84,1.62-12.17,1.76-17.06-.31-.75-.31-1.44-.65-2.07-.99-1.1-.59-2.11-1.34-3.01-2.2-.86,3.9-1.48,7.85-1.96,11.85,2.63-1.87,5.66-3.09,8.85-3.56,3.94-.56,7.96.06,11.56,1.77,2.23,1.07,6.3,2.89,6.83,5.48.98,4.84-6.47,10.24-10.28,12.85-5.65,3.87-12.49,5.04-19.22,4.49-3.38-.28-6.72-.95-10.01-1.83-3.16-.84-5.98-2.64-8.06-5.16-2.09-2.42-3.73-5.19-4.83-8.2-1.64-4.31-4.66-13.02-1.04-16.43l.02-.04Z"/>
</svg>