<?xml version="1.0" encoding="UTF-8"?>
<svg id="Layer_1" xmlns="http://www.w3.org/2000/svg" version="1.1" viewBox="0 0 108.88 96.87">
  <!-- Generator: Adobe Illustrator 29.7.1, SVG Export Plug-In . SVG Version: 2.1.1 Build 8)  -->
  <defs>
    <style>
      .st0 {
        fill: #e45a2b;
      }
    </style>
  </defs>
  <path class="st0" d="M98.6,96.67c2.5,0,5.2-.2,7-2,1.3-1.4,1.6-3.5,1.7-5.4.24-3.27.17-6.55-.2-9.8-.3-2-.7-4.1-2.2-5.4s-3.6-1.4-5.5-1.5c-29.6-1-59.2-1.2-88.8-.7-2.4,0-5.1.1-7,1.7-2.4,2-2.8,5.3-3,8.4l-.6,10c0,1,0,2.1.4,3,1,1.8,5,.9,6.6,1l10,.1c19.7.36,39.4.62,59.1.8,7.5,0,15,0,22.5-.2ZM3,59.47c.1,2.2.5,4.5,2.1,6,1.6,1.3,3.9,1.4,6,1.4l89,1c1.3,0,2.8,0,4-.7,2-1.1,2.4-3.7,2.6-6l2-16.8c.32-1.57.22-3.19-.3-4.7-1.4-3-5.6-3.5-9-3.4-16,0-31.8.8-47.7,1.1l-24.1.6-12,.3c-3,0-7.1-.6-10.1.4-3.2,1-2.7,4.3-2.8,7.2-.2,4.5-.1,9,.3,13.6ZM102,30.87c2.4-2,2.8-5.8,2.5-9-.4-3.6-.5-7.3-1.3-10.8-.6-2.8-.7-6.8-2.8-9C98.4-.03,95.3-.13,92.4.07L23.8,1.97c-5.9.2-12.2.6-16.6,4.5-2.8,2.72-4.57,6.32-5,10.2-.8,4.7-1.2,11.1,4.3,12.3,6.8,1.7,15,.9,22,1.2l34.7,1c10.8.2,21.3,1,32.1,1.2,2,0,4.3,0,6-1l.8-.6-.1.1Z"/>
</svg>