<?xml version="1.0" encoding="UTF-8"?>
<svg id="Layer_1" xmlns="http://www.w3.org/2000/svg" version="1.1" viewBox="0 0 133.13 130.03">
  <!-- Generator: Adobe Illustrator 29.7.1, SVG Export Plug-In . SVG Version: 2.1.1 Build 8)  -->
  <defs>
    <style>
      .st0 {
        fill: #e45a2b;
      }

      .st1 {
        fill: none;
        stroke: #e45a2b;
        stroke-miterlimit: 10;
        stroke-width: 10px;
      }
    </style>
  </defs>
  <path class="st0" d="M51.77,65.4c-.25,2.44-.26,5.05,1.56,7.12,2.39,2.72,7.18,3.71,11.59,4.27,16.31,2.08,33.04,1.26,49.57.42,3.06-.15,6.3-.36,8.76-1.67,3.51-1.87,4.34-5.35,4.55-8.49.26-3.76.04-7.53-.66-11.26-.33-1.77-.85-3.64-2.59-4.92-2.34-1.71-6.07-1.8-9.41-1.77-14.64.14-29.27.47-43.9.99-4.63.16-12.08.17-15.68,2.7s-3.45,9.17-3.8,12.6Z"/>
  <path class="st0" d="M54.52,103.64c-.56,4.95-.54,10.24,2.7,13.89,3.7,4.17,10.03,4.41,15.6,4.34,13.45-.17,26.99,1.14,40.38.21,10.8-.75,12.97-9.72,14.41-19.14.58-3.79-.23-8.38-2.09-11.74-2.23-4.02-6.18-4.2-10.39-4.16-14.85.14-29.71-.13-44.57.16-3.79.07-7.88.26-10.85,2.62-3.44,2.73-4.34,7.5-4.94,11.85-.09.65-.18,1.31-.25,1.98Z"/>
  <path class="st0" d="M5.18,24.05c-.05,1.52-.04,3.03,0,4.5.1,4.1.37,8.63,3.29,11.52,2.89,2.86,7.38,3.12,11.44,3.21,16.03.34,32.06.68,48.09,1.02,5.44.12,11.53-.02,15.38-3.87,3.55-3.56,3.96-9.09,4.15-14.12.17-4.29.23-8.96-1.48-12.99-2.21-5.2-4.99-5.19-10.13-5.19h-39.26c-5.48,0-11.41.63-16.85-.12-10.24-1.41-14.29,6.57-14.63,16.04Z"/>
  <path class="st1" d="M42.56,39.27c-.62,16.93-1.23,33.87-1.85,50.8-.13,3.61-.23,7.38,1.31,10.65,2.07,4.39,6.8,7.04,11.58,7.87s9.68.11,14.48-.61"/>
  <path class="st1" d="M43.08,61.84c5.4.88,10.92,1.09,16.37.61"/>
</svg>