<?xml version="1.0" encoding="UTF-8"?>
<svg id="Layer_1" xmlns="http://www.w3.org/2000/svg" version="1.1" viewBox="0 0 53.8 72.27">
  <!-- Generator: Adobe Illustrator 29.7.1, SVG Export Plug-In . SVG Version: 2.1.1 Build 8)  -->
  <defs>
    <style>
      .st0 {
        fill: #fefbdd;
      }
    </style>
  </defs>
  <path class="st0" d="M7.87,50.41C2.87,49.03-.69,43.59.11,38.45s6.09-9.41,11.39-8.99c-1.75-5.73-2.31-12.59,1.61-17.11,3.86-4.46,11.64-4.64,15.72-.38s3.53,12.03-1.1,15.68c5.75.09,11.96,1.52,15.61,5.96,2.28,2.77,3.05,7.16,1.63,10.5s-5.63,3.93-6.58,7.25c-.85,2.95,1.89,6.8,1.55,10-.47,4.48-3.68,9.1-8.06,10.47-3.98,1.24-8.32-.29-11.91-2.41-4.09-2.42-7.68-5.66-10.54-9.45-.67-.88-6.96-10.82-1.23-9.47-.11-.03-.23-.06-.34-.09Z"/>
  <path class="st0" d="M42.73,15.75c-2.15.34-4.46-1.03-5.17-3.09s.23-4.57,2.14-5.64c-1.49-.86-1.71-3.11-.77-4.55S41.62.32,43.33.09c3.04-.41,6.31.6,8.38,2.86s2.75,5.81,1.38,8.56c-.58,1.16-1.49,2.2-1.71,3.48-.27,1.56.56,3.1.72,4.68.34,3.39-3.02,6.62-6.39,6.15s-5.71-4.52-4.44-7.68"/>
</svg>