<?xml version="1.0" encoding="UTF-8"?>
<svg id="Layer_1" xmlns="http://www.w3.org/2000/svg" version="1.1" viewBox="0 0 133.13 130.03">
  <!-- Generator: Adobe Illustrator 29.7.1, SVG Export Plug-In . SVG Version: 2.1.1 Build 8)  -->
  <defs>
    <style>
      .st0 {
        fill: #e45a2b;
      }

      .st1 {
        fill: none;
        stroke: #e45a2b;
        stroke-miterlimit: 10;
        stroke-width: 10px;
      }
    </style>
  </defs>
  <path class="st1" d="M5.09,101.38c.18,7.09,1.02,15.02,6.46,19.58,4.76,3.99,11.56,4.12,17.77,4.05,25.34-.28,50.68-.57,76.02-.85,5.61-.06,11.67-.27,16.09-3.73,6-4.68,6.7-13.35,6.7-20.96,0-24.27-2.01-48.54-6.01-72.48-1.1-6.6-2.68-13.74-7.87-17.95-5.51-4.47-13.33-4.26-20.42-3.83-16.42,1.01-32.85,2.01-49.27,3.02-20.2,1.24-29.62,8.81-33.56,27.93-4.42,21.44-6.46,43.33-5.91,65.22Z"/>
  <path class="st0" d="M27.21,61.52c3.08.25,6.18.94,9.06,1.87,10.53,3.4,20.12,9.55,27.72,17.58,7.01,7.41,11.54,19.68,23.78,18.92,7.1-.44,12.56-6.14,17.59-11.17,7.42-7.42,12.87-7.76,22.42-9.04,1.52,6.95,3.05,14.01,2.59,21.11s-3.19,14.37-8.79,18.76c-6.44,5.05-15.25,5.43-23.43,5.59-21.28.41-42.56.76-63.84,1.06-7.58.11-18.24,1.07-23.15-6.11-6.1-8.94-6.66-20.46-6.53-30.91.1-8.25.61-17.49,6.66-23.11,4.22-3.93,10.05-5.01,15.93-4.53Z"/>
  <circle class="st0" cx="90.18" cy="52.42" r="16.49"/>
</svg>