<?xml version="1.0" encoding="UTF-8"?>
<svg id="Layer_1" xmlns="http://www.w3.org/2000/svg" version="1.1" viewBox="0 0 133.13 130.03">
  <!-- Generator: Adobe Illustrator 29.7.1, SVG Export Plug-In . SVG Version: 2.1.1 Build 8)  -->
  <defs>
    <style>
      .st0 {
        fill: #e4592d;
      }
    </style>
  </defs>
  <path class="st0" d="M23.21,75.01c-.5,4.48-.5,8.96,0,13.35.58,4.98,2.82,10.86,7.8,11.61,3.4.41,6.63-2.16,8.29-5.22,1.66-3.15,1.99-6.72,2.49-10.2,3.9-24.38,19.07-46.69,40.47-59.21,3.81-2.24,8.04-4.23,12.52-4.64s9.37,1.24,11.94,4.98c4.15,5.81.83,14.6-4.81,19.07-5.72,4.56-13.02,6.3-19.74,9.12-13.77,5.87-25,16.46-31.68,29.86-1.66,3.32-5.06,9.62-3.9,13.27.83,2.32,3.32,4.23,5.81,4.15,2.74,0,3.73-2.07,5.22-4.06,3.98-5.22,8.04-10.37,12.36-15.43,8.36-10.07,18.01-18.99,28.7-26.54,3.48-2.32,7.13-4.48,11.2-5.64,4.06-1.16,8.46-1.16,12.27.66s6.63,5.72,6.55,9.87c0,3.48-2.16,6.72-4.81,8.96s-5.89,3.73-9.12,5.14c-14.1,5.97-28.94,11.44-40.22,21.89-5.72,5.31-10.37,11.78-16.17,16.92-7.69,6.74-17.88,9.9-28.03,8.71-5.28-.4-10.31-2.4-14.43-5.72-5.89-5.22-8.13-13.52-8.87-21.48-.77-7.58-.49-15.22.83-22.72C13.26,42.16,37.31,7.17,70.15,7c3.81,0,7.88.5,10.86,2.9,2.99,2.32,4.48,6.88,2.41,10.12-2.16,3.07-6.47,3.57-10.12,4.06-15.07,2.1-28.74,9.94-38.15,21.89-6.53,8.42-10.66,18.45-11.94,29.03Z"/>
</svg>