<?xml version="1.0" encoding="UTF-8"?>
<svg id="Layer_1" xmlns="http://www.w3.org/2000/svg" version="1.1" viewBox="0 0 133.13 130.03">
  <!-- Generator: Adobe Illustrator 29.7.1, SVG Export Plug-In . SVG Version: 2.1.1 Build 8)  -->
  <defs>
    <style>
      .st0 {
        fill: #fffddc;
      }

      .st0, .st1 {
        stroke: #e4572e;
        stroke-linecap: round;
        stroke-miterlimit: 10;
        stroke-width: 10px;
      }

      .st1 {
        fill: none;
      }
    </style>
  </defs>
  <path class="st0" d="M97.74,43.86c0-17.32-14.04-31.36-31.36-31.36-18.87,0-31.96,17.71-30.94,35.74.24,4.22,1.26,8.49,3.62,12,3.44,5.1,9.8,8.46,10.73,15.03.24,1.69.05,3.41.33,5.1.69,4.27,4.87,5.22,8.6,5.44,5.41.31,10.85.05,16.21-.76,2.68-.41,5.15-1.23,5.73-4.23.35-1.81.06-3.7.44-5.51.83-3.96,4.54-6.51,7.46-9.32,5.98-5.74,9.19-13.87,9.19-22.12Z"/>
  <path class="st1" d="M53.11,97.01c8.39,3.28,17.84,2.68,25.88-1.65"/>
  <path class="st1" d="M53.16,109.93c8.29,1.78,17.02.63,24.77-3.27"/>
  <path class="st1" d="M56.58,121.82c6.34.38,12.75-.3,18.94-2.01"/>
</svg>