<?xml version="1.0" encoding="UTF-8"?>
<svg id="Layer_1" xmlns="http://www.w3.org/2000/svg" version="1.1" viewBox="0 0 133.13 130.03">
  <!-- Generator: Adobe Illustrator 29.7.1, SVG Export Plug-In . SVG Version: 2.1.1 Build 8)  -->
  <defs>
    <style>
      .st0 {
        fill: #fefbdd;
      }

      .st1 {
        fill: none;
        stroke: #e4572e;
        stroke-linecap: round;
        stroke-miterlimit: 10;
        stroke-width: 7px;
      }

      .st2 {
        fill: #e4572e;
      }
    </style>
  </defs>
  <path class="st2" d="M95.77,12.34c-5.39-1.35-11.23.22-16.58-.07-10.65-.57-21.31-1.14-31.96-1.72-3.52-.19-7.56-.18-9.92,2.44-1.72,1.91-2.01,4.67-2.23,7.23-2.38,28.67-4.77,57.35-7.15,86.02-.29,3.47-.32,7.56,2.45,9.67,1.64,1.25,3.83,1.42,5.89,1.54,16.82.97,33.49,2.2,50.32,2.42,1.45.02,2.97.02,4.34-.36.66-.18,1.28-.44,1.86-.83,2.4-1.63,3.02-4.85,3.36-7.73,1.82-15.22,2.94-30.48,4.02-45.71.91-12.83,1.53-25.7,2.2-38.55.35-6.61,1.04-12.44-6.61-14.35h.01Z"/>
  <path class="st0" d="M49.79,17.64c-.15,0-.3.02-.45.03-1.36.12-2.99,1.09-4.26,1.09-2.47,1.2-3.67,3.59-3.61,6.23.07,3.2.09,6.41-.16,9.73-.59,7.69-1.17,15.38-1.79,23.07-1.21,15-2.55,30-4.34,44.95-.18,1.49-.34,3.1.35,4.43,1.2,2.32,5.78,2.33,8,2.53,11.72,1.04,23.5,1.29,35.26,1.53,3.61.07,8.81-.07,10.7-3.77.88-1.73,1.03-3.72,1.16-5.65.77-10.99,1.53-21.98,2.3-32.97.67-9.68,1.35-19.37,2.02-29.05.31-4.42.49-9.1,1.19-13.44.35-2.18.31-4.78-1.44-6.13-1.12-.86-2.63-.96-4.04-1.01-7.88-.31-15.77-.63-23.65-.94-4.03-.16-8.07-.32-12.1-.48-1.7-.07-3.45-.25-5.15-.15Z"/>
  <path class="st1" d="M45.58,100.92c11.58,1.26,23.22,1.99,34.87,2.21"/>
</svg>