<?xml version="1.0" encoding="UTF-8"?>
<svg id="Layer_1" xmlns="http://www.w3.org/2000/svg" version="1.1" viewBox="0 0 133.13 130.03">
  <!-- Generator: Adobe Illustrator 29.7.1, SVG Export Plug-In . SVG Version: 2.1.1 Build 8)  -->
  <defs>
    <style>
      .st0 {
        fill: #e4592d;
      }
    </style>
  </defs>
  <path class="st0" d="M50.94,10.61c5.53-2.93,12.09-2.92,18.34-2.84,10.79.15,21.58.29,32.37.44,4.88.07,9.89.15,14.43,1.94s8.6,5.66,9.15,10.51c.55,4.85-3.6,10.12-8.45,9.53,6.44.78,9.61,9.56,9.59,15.15-.02,3.6-3.58,9.84-8.1,9.02,4.62.83,7.28,6.45,6.01,10.97s-5.46,7.74-9.95,9.12c-4.49,1.38-9.28,1.24-13.97,1.08-5.14-.17-10.28-.35-15.42-.52-2.89-.1-5.94-.16-8.46,1.26-5.37,3.03-5.39,10.58-5.12,16.74.42,9.67-5.11,17.29-13.18,22.31-5.3,3.3-13.16,4.25-17.1-.59-4.34-5.32-1-13.08,1.11-19.62,4.66-14.41,2.28-29.99.92-45.07-.94-10.37-4.03-29.2,4.94-37.41.85-.78,1.8-1.46,2.87-2.03Z"/>
  <path class="st0" d="M5.77,54.68c.4,9.46,4.24,13.43,16.51,13.51,4.86.04,10.06-1.83,12.15-5.54,1.23-2.18,1.26-4.69,1.26-7.1.02-10.91.03-21.83.05-32.75,0-4.27-.21-9.02-3.74-12.07-3.91-3.38-10.32-3.31-15.84-2.54-3.71.51-7.71,1.42-9.9,4-2.01,2.36-1.98,5.52-1.86,8.43.46,11.35.89,22.71,1.37,34.06Z"/>
</svg>