<?xml version="1.0" encoding="UTF-8"?>
<svg id="Layer_1" xmlns="http://www.w3.org/2000/svg" version="1.1" viewBox="0 0 133.13 130.03">
  <!-- Generator: Adobe Illustrator 29.7.1, SVG Export Plug-In . SVG Version: 2.1.1 Build 8)  -->
  <defs>
    <style>
      .st0 {
        fill: #e45a2b;
      }
    </style>
  </defs>
  <path class="st0" d="M28.59,25.74c-.34,3.81-.89,7.61-.84,11.45.07,5.99,2.13,12.56,7.34,15.5,3.04,1.72,6.71,2.01,10.13,2.01,4.39,0,8.77,0,13.16,0,3.53,0,14.49-1.73,16.51,1.67,1.78,2.99,1.03,7.15-1.03,10.06-.98,1.39-.07,3.32,1.63,3.35,4.57.09,9.17-1.13,13.06-3.54,4-2.48,6.56-5.9,8.89-9.89s7.74-2.98,12.11-3.25c3.52-.22,7.19-.84,10.02-2.95,4.61-3.43,3.91-10.04,3.68-15.15-.28-6.17-.55-12.34-.83-18.51-.15-3.24-.34-6.66-2.08-9.4-2.73-4.31-8.42-5.65-13.52-5.56-8.33.16-16.54.41-24.89.4-10.21,0-20.42-.01-30.63-.02-7.54.64-15.08-1.78-19.54,6.11-2.24,3.96-2.89,8.49-2.91,12.93,0,1.6-.11,3.19-.25,4.78Z"/>
  <path class="st0" d="M102.58,104.29c.34-3.81.89-7.61.84-11.45-.07-5.99-2.13-12.56-7.34-15.5-3.04-1.72-6.71-2.01-10.13-2.01-4.39,0-8.77,0-13.16,0-3.53,0-14.49,1.73-16.51-1.67-1.78-2.99-1.03-7.15,1.03-10.06.98-1.39.07-3.32-1.63-3.35-4.57-.09-9.17,1.13-13.06,3.54-4,2.48-6.56,5.9-8.89,9.89s-7.74,2.98-12.11,3.25c-3.52.22-7.19.84-10.02,2.95-4.61,3.43-3.91,10.04-3.68,15.15.28,6.17.55,12.34.83,18.51.15,3.24.34,6.66,2.08,9.4,2.73,4.31,8.42,5.65,13.52,5.56,8.33-.16,16.54-.41,24.89-.4,10.21,0,20.42.01,30.63.02,7.54-.64,15.08,1.78,19.54-6.11,2.24-3.96,2.89-8.49,2.91-12.93,0-1.6.11-3.19.25-4.78Z"/>
</svg>