<?xml version="1.0" encoding="UTF-8"?>
<svg id="Layer_1" xmlns="http://www.w3.org/2000/svg" version="1.1" viewBox="0 0 133.13 130.03">
  <!-- Generator: Adobe Illustrator 29.7.1, SVG Export Plug-In . SVG Version: 2.1.1 Build 8)  -->
  <defs>
    <style>
      .st0 {
        fill: #e4572e;
      }
    </style>
  </defs>
  <circle class="st0" cx="63.56" cy="17.7" r="16.2"/>
  <circle class="st0" cx="52.59" cy="38.44" r="18.96"/>
  <circle class="st0" cx="77.48" cy="39.93" r="24.89"/>
  <circle class="st0" cx="47.36" cy="73.6" r="24.3"/>
  <circle class="st0" cx="79.75" cy="70.74" r="27.16"/>
  <path class="st0" d="M55.79,109.02c-2.55,5.67-7.52,10.21-13.4,12.24-1.62.56-3.76,1.82-3.01,3.37.47.96,1.77,1.09,2.84,1.09,12.84-.06,25.67-.13,38.51-.19,1.82,0,4.09-.32,4.66-2.05.5-1.51-.75-3.08-2.18-3.77s-3.07-.87-4.49-1.6c-2.94-1.52-4.23-5.1-4.33-8.4s.73-6.57.8-9.88c.12-5.4-2.09-11.11-6.66-13.99-3.54-2.23-14.48-2.55-13.74,3.8.29,2.49,2.53,4.71,2.86,7.45.49,4.02-.19,8.25-1.85,11.94Z"/>
</svg>